<?xml version="1.0" standalone="no"?>
<!DOCTYPE svg PUBLIC "-//W3C//DTD SVG 1.1//EN" "http://www.w3.org/Graphics/SVG/1.1/DTD/svg11.dtd" >
<svg xmlns="http://www.w3.org/2000/svg" xmlns:xlink="http://www.w3.org/1999/xlink" version="1.1">
<metadata></metadata>
<defs>
<font id="blanco_trialextra_bold" horiz-adv-x="751" >
<font-face units-per-em="2048" ascent="1577" descent="-471" />
<missing-glyph horiz-adv-x="409" />
<glyph horiz-adv-x="0" />
<glyph horiz-adv-x="682" />
<glyph unicode=" "  horiz-adv-x="409" />
<glyph unicode="&#x09;" horiz-adv-x="409" />
<glyph unicode="&#xa0;" horiz-adv-x="409" />
<glyph unicode="," horiz-adv-x="643" d="M86 -252q88 55 131 116t43 120q0 58 -39 109t-112 79q9 90 74.5 146.5t154.5 46.5q176 -78 176 -256q1 -85 -36.5 -168t-120 -162.5t-201.5 -138.5z" />
<glyph unicode="-" d="M102 418v250h547v-250h-547z" />
<glyph unicode="." horiz-adv-x="643" d="M123 162q0 74 57.5 132t141.5 58t141 -57.5t57 -132.5t-57 -133t-141 -58t-141.5 58t-57.5 133z" />
<glyph unicode="0" horiz-adv-x="1241" d="M92 631q0 319 146 513.5t407 194.5q245 0 374.5 -167t129.5 -492q0 -319 -146 -514t-407 -195q-245 0 -374.5 167.5t-129.5 492.5zM428 666q0 -258 49 -395.5t141 -137.5q93 0 144 136t51 376q0 258 -49 395.5t-141 137.5q-93 0 -144 -136t-51 -376z" />
<glyph unicode="1" horiz-adv-x="1019" d="M96 154l291 51v813q-117 -31 -283 -31v166q127 9 251.5 57t207.5 121h158l-10 -168v-958l280 -51l-16 -154h-862z" />
<glyph unicode="2" horiz-adv-x="1069" d="M37 133q232 217 362.5 365t177 236.5t46.5 164.5q0 87 -50.5 139t-130.5 52q-75 0 -139 -53t-98 -154l-137 45q44 188 170 299.5t311 111.5q176 0 280.5 -100.5t104.5 -243.5q0 -151 -141 -324.5t-484 -432.5l469 36l88 162l115 -12q12 -219 -47 -424h-860z" />
<glyph unicode="3" horiz-adv-x="1052" d="M47 70q-6 66 26.5 133.5t86.5 111.5q142 -180 286 -180q92 0 151.5 62.5t59.5 160.5q0 108 -70 175t-175 67q-52 0 -107 -18l-37 96q161 70 237.5 140t76.5 147q0 62 -41 101.5t-105 39.5q-66 0 -126 -45t-95 -121l-133 57q43 149 166 245.5t297 96.5q152 0 249 -72.5 t97 -185.5q0 -187 -273 -307q150 -16 251.5 -110t101.5 -234q0 -89 -43.5 -172t-118 -146.5t-182.5 -102t-228 -38.5q-198 0 -352 99z" />
<glyph unicode="4" horiz-adv-x="1181" d="M10 500l662 831h239l-4 -155v-646h230q9 -91 -41 -165h-189v-195l189 -23l-13 -147h-698l-12 147l231 25v193h-547zM207 530h397v508z" />
<glyph unicode="5" horiz-adv-x="1052" d="M47 78q-6 63 29 134.5t90 113.5q145 -191 315 -191q95 0 154 51.5t59 128.5q0 106 -127.5 167t-371.5 73l-64 59l135 697h664q20 -73 12 -158t-39 -158l-553 31l-31 -170q319 -17 477 -124.5t158 -289.5q0 -93 -37.5 -177.5t-105 -150t-171 -104.5t-226.5 -39 q-102 0 -200 29.5t-167 77.5z" />
<glyph unicode="6" horiz-adv-x="1187" d="M82 514q0 159 66.5 308t183.5 263.5t289 183.5t370 70l19 -155q-235 -17 -394 -164.5t-198 -370.5q60 83 153 132.5t197 49.5q154 0 250 -106.5t96 -269.5q0 -142 -72 -253.5t-191 -171t-261 -59.5q-222 0 -365 147.5t-143 395.5zM406 518q0 -172 56 -280.5t146 -108.5 q75 0 131 71t56 187t-59.5 182t-149.5 66q-95 0 -178 -70q-2 -14 -2 -47z" />
<glyph unicode="7" horiz-adv-x="1011" d="M51 877q-12 205 53 434h820l47 -72l-490 -1262q-115 -15 -205 25.5t-126 114.5l604 913l-504 -8l-84 -158z" />
<glyph unicode="8" horiz-adv-x="1148" d="M86 293q0 98 73 180.5t201 132.5q-225 127 -225 332q0 168 129.5 284.5t335.5 116.5q185 0 299.5 -82t114.5 -206q0 -93 -70.5 -171.5t-189.5 -125.5q161 -76 235 -161t74 -200q0 -83 -36 -159t-101 -134.5t-162 -93.5t-211 -35q-197 0 -332 91t-135 231zM362 367 q0 -110 69 -176t163 -66q84 0 137 50t53 118q0 57 -52 110.5t-177 110.5l-121 55q-72 -91 -72 -202zM410 1040q0 -129 194 -217l70 -32q76 107 76 208q0 91 -49.5 144t-127.5 53q-75 0 -119 -45.5t-44 -110.5z" />
<glyph unicode="9" horiz-adv-x="1187" d="M74 856q0 107 41.5 198t112.5 153t165.5 97t200.5 35q223 0 367.5 -147.5t144.5 -394.5q0 -127 -42 -249t-122.5 -225.5t-189.5 -182.5t-252.5 -123.5t-302.5 -45.5l-19 156q234 15 393.5 163.5t198.5 371.5q-60 -84 -151.5 -133.5t-194.5 -49.5q-150 0 -250 109 t-100 268zM393 924q0 -116 59.5 -182t149.5 -66q96 0 178 69q2 14 2 48q0 172 -55 280.5t-143 108.5q-76 0 -133.5 -71t-57.5 -187z" />
<glyph unicode="A" horiz-adv-x="1468" d="M18 152l117 41l447 1118l292 26l461 -1149l115 -36l-12 -152h-664l-12 152l217 41l-76 213h-497l-74 -211l188 -43l-12 -152h-477zM457 555h393l-145 410l-52 163l-53 -163z" />
<glyph unicode="B" horiz-adv-x="1366" d="M47 152l182 43v921l-182 43l12 152h715q220 0 349.5 -78.5t129.5 -222.5q0 -123 -94 -209t-280 -111q411 -41 411 -311q0 -174 -164.5 -276.5t-447.5 -102.5h-619zM557 150h119q130 0 203 60t73 161q0 108 -78.5 171.5t-205.5 63.5h-111v-456zM557 752h117q112 0 178 59 t66 154q0 96 -66 147t-178 51h-117v-411z" />
<glyph unicode="C" horiz-adv-x="1361" d="M80 618q0 156 53.5 288t151.5 228.5t246 150.5t329 54q188 0 352 -45q23 -70 33 -176q6 -67 6 -132q0 -39 -2 -77l-147 -14l-174 279q-57 14 -115 14q-177 0 -275 -136.5t-98 -369.5q0 -245 108.5 -400t285.5 -155q36 0 88 10l188 336l150 -14q1 -21 1 -44q0 -69 -7 -155 q-9 -116 -29 -194q-78 -43 -202 -69t-247 -26q-168 0 -301 47t-219 133t-131 204.5t-45 262.5z" />
<glyph unicode="D" horiz-adv-x="1513" d="M47 152l182 43v921l-182 43l12 152h662q350 0 531.5 -161.5t181.5 -438.5q0 -118 -32 -224t-97 -195t-157.5 -154t-220 -101.5t-278.5 -36.5h-590zM565 156h129q185 0 284 138t99 374q0 235 -103.5 363t-303.5 128h-105v-1003z" />
<glyph unicode="E" horiz-adv-x="1339" d="M47 152l182 43v921l-182 43l12 152h1112q21 -44 39 -176q15 -113 15 -181v-22l-135 -21l-156 244l-369 25v-445l168 15l80 188h121v-537h-121l-76 183l-172 16v-467l391 25l154 301l139 -15q1 -15 1 -31q0 -82 -13 -202q-15 -144 -35 -211h-1143z" />
<glyph unicode="F" horiz-adv-x="1280" d="M47 152l182 43v921l-182 43l12 152h1112q19 -44 37 -176q17 -119 17 -189v-14l-135 -21l-156 244l-369 23v-463l174 14l80 189h121v-537h-121l-76 182l-178 17v-379l242 -49l-12 -152h-736z" />
<glyph unicode="G" horiz-adv-x="1482" d="M80 618q0 210 97.5 373.5t281 255.5t426.5 92q202 0 381 -45q37 -112 37 -274q0 -45 -3 -94l-147 -25l-164 258q-76 29 -153 29q-124 0 -216 -68t-139 -184.5t-47 -263.5q0 -237 119 -393t311 -156q55 0 107 14l-6 369l-205 39l12 151h645l13 -151l-123 -37l-13 -447 q-87 -42 -213.5 -66t-263.5 -24q-183 0 -324.5 48t-231 134.5t-135.5 204t-46 260.5z" />
<glyph unicode="H" horiz-adv-x="1628" d="M47 152l182 43v921l-182 43l12 152h676l13 -152l-183 -43v-368h498v368l-182 43l12 152h676l12 -152l-182 -43v-921l182 -43l-12 -152h-676l-12 152l182 43v397h-498v-397l183 -43l-13 -152h-676z" />
<glyph unicode="I" horiz-adv-x="794" d="M47 152l182 43v921l-182 43l12 152h676l13 -152l-183 -43v-921l183 -43l-13 -152h-676z" />
<glyph unicode="J" horiz-adv-x="770" d="M-8 -205q105 30 165 105.5t60 189.5v1026l-182 43l12 152h676l12 -152l-182 -43v-889q0 -229 -150 -379q-142 -142 -378 -170z" />
<glyph unicode="K" horiz-adv-x="1497" d="M47 152l182 43v921l-182 43l12 152h668l12 -152l-176 -43v-391l35 2q52 4 79 19.5t64 56.5l295 321l-149 35l12 152h533l10 -152l-164 -37l-350 -346l325 -481q46 -69 82 -101.5t95 -52.5l45 -14l-11 -127q-82 -29 -200 -29q-128 0 -210 49t-151 173l-225 407h-115v-405 l185 -43l-13 -152h-676z" />
<glyph unicode="L" horiz-adv-x="1247" d="M47 152l182 43v921l-182 43l12 152h723l13 -152l-228 -47v-975l324 27l164 344l139 -14q2 -26 2 -58q0 -78 -10 -196q-14 -166 -35 -240h-1092z" />
<glyph unicode="M" horiz-adv-x="1970" d="M25 152l176 49l102 917l-170 41l12 152h584l223 -672l41 -154l45 154l226 672h561l12 -152l-170 -43l102 -917l177 -47l-13 -152h-680l-12 152l211 49l-74 749l-12 195l-61 -195l-324 -950h-133l-324 950l-61 195l-12 -195l-74 -749l203 -49l-13 -152h-530z" />
<glyph unicode="N" horiz-adv-x="1556" d="M57 1159l13 152h471l546 -719l93 -133l-21 643l-239 57l12 152h571l13 -152l-170 -55v-1104h-218l-583 766l-154 225l25 -782l250 -57l-13 -152h-581l-13 152l170 55v897z" />
<glyph unicode="O" horiz-adv-x="1478" d="M80 598q0 163 53 302t146.5 235t224.5 150t282 54q275 0 444 -165t169 -459q0 -217 -91.5 -387.5t-252.5 -263.5t-363 -93q-134 0 -246.5 42t-193.5 120.5t-126.5 197.5t-45.5 267zM436 672q0 -246 85 -393.5t229 -147.5q135 0 213.5 135t78.5 375q0 246 -84.5 392.5 t-228.5 146.5q-135 0 -214 -134.5t-79 -373.5z" />
<glyph unicode="P" horiz-adv-x="1341" d="M47 152l182 43v921l-182 43l12 152h738q249 0 369 -99.5t120 -267.5q0 -136 -77 -237.5t-204 -152t-284 -50.5h-156v-303l242 -49l-12 -152h-736zM565 653h123q104 0 175 68.5t71 185.5q0 116 -69 184t-177 68h-123v-506z" />
<glyph unicode="Q" horiz-adv-x="1478" d="M80 598q0 163 53 302t146.5 235t224.5 150t282 54q275 0 444 -165t169 -459q0 -262 -130 -451t-347 -258q70 -46 192 -110q176 -89 283 -89q93 0 159 60l84 -94q-90 -120 -169.5 -173t-170.5 -53q-134 0 -337 138q-162 111 -357 290q-241 27 -383.5 189.5t-142.5 433.5z M436 672q0 -246 85 -393.5t229 -147.5q135 0 213.5 135t78.5 375q0 246 -84.5 392.5t-228.5 146.5q-135 0 -214 -134.5t-79 -373.5z" />
<glyph unicode="R" horiz-adv-x="1439" d="M47 152l182 43v921l-182 43l12 152h721q248 0 378 -87.5t130 -242.5q0 -121 -84 -211t-223 -133l242 -356q53 -79 83 -104t91 -44l20 -6l-10 -127q-109 -29 -186 -29q-123 0 -202.5 58t-148.5 190l-190 365h-125v-389l186 -43l-12 -152h-670zM555 725h141q118 0 185 54 t67 163t-67 164t-185 55h-141v-436z" />
<glyph unicode="S" horiz-adv-x="1153" d="M83 242q1 118 19 194l140 15l139 -285q92 -37 176 -37q100 0 157.5 48t57.5 124q0 66 -55.5 111.5t-200.5 99.5q-216 81 -306.5 178t-90.5 230q0 188 144 303.5t394 115.5q160 0 334 -51q22 -71 27 -168q1 -24 1 -47q0 -69 -11 -127l-144 -14l-125 227q-71 27 -141 27 q-88 0 -138 -38.5t-50 -105.5q0 -64 57 -108.5t205 -99.5q217 -81 307 -174t90 -230q0 -94 -37 -176.5t-105.5 -146t-174.5 -100t-236 -36.5q-104 0 -221 20.5t-193 53.5q-19 74 -19 185v12z" />
<glyph unicode="T" horiz-adv-x="1400" d="M51 879q-5 33 -5 83q0 57 6 137q12 149 32 212h1233q19 -63 31 -212q6 -80 7 -137q0 -50 -5 -83l-136 -21l-155 293l-189 23v-977l211 -45l-12 -152h-737l-13 152l211 45v977l-188 -23l-156 -293z" />
<glyph unicode="U" horiz-adv-x="1454" d="M35 1159l12 152h660l12 -152l-197 -43v-555q0 -184 77 -275t208 -91q127 0 205 90.5t78 271.5v553l-185 49l13 152h489l12 -152l-151 -49v-590q0 -118 -35.5 -218t-103 -174t-172.5 -115.5t-238 -41.5q-242 0 -387.5 137t-145.5 390v622z" />
<glyph unicode="V" horiz-adv-x="1409" d="M14 1159l13 152h659l12 -152l-194 -39l237 -698l50 -168l53 168l233 698l-188 39l12 152h481l13 -152l-113 -41l-448 -1136h-256l-453 1142z" />
<glyph unicode="W" horiz-adv-x="2062" d="M29 1159l12 152h614l13 -152l-166 -35l203 -688l43 -172l51 172l75 213l93 240l-80 235l-127 35l10 152h633l12 -152l-166 -31l187 -692l37 -172l47 172l202 688l-186 35l12 152h473l13 -152l-101 -31l-415 -1146h-244l-238 702l-18 -72l-227 -630h-244l-418 1146z" />
<glyph unicode="X" horiz-adv-x="1427" d="M25 152l151 36l383 441l-391 497l-111 33l13 152h659l12 -152l-178 -33l217 -305l224 309l-148 29l12 152h484l12 -152l-133 -35l-359 -426l406 -512l121 -34l-13 -152h-679l-13 152l183 32l-228 320l-239 -324l155 -28l-12 -152h-516z" />
<glyph unicode="Y" horiz-adv-x="1359" d="M14 1159l13 152h659l12 -152l-186 -39l258 -448l254 452l-168 35l12 152h465l13 -152l-111 -41l-387 -594v-327l205 -45l-13 -152h-716l-13 152l201 45v327l-395 606z" />
<glyph unicode="Z" horiz-adv-x="1282" d="M55 127l752 1034l-393 -16l-178 -303l-136 20q-4 37 -4 96q0 56 4 133q8 158 31 220h1010l55 -129l-739 -1037l432 25l184 338l139 -14q2 -29 2 -65q0 -78 -9 -191q-13 -165 -34 -238h-1060z" />
<glyph unicode="a" horiz-adv-x="1091" d="M72 199q0 237 389 311l162 31v94q0 76 -36.5 112.5t-121.5 36.5q-26 0 -96 -8q-18 -62 -35 -184l-201 -8q-8 31 -8 63q0 67 34 119.5t105 103.5q158 111 348 111q164 -1 241 -77q75 -75 75 -213v-7l-4 -360q0 -78 6 -148l129 10l20 -94q-124 -121 -256 -121 q-80 0 -130 48.5t-56 138.5l-8 2q-47 -88 -130 -138.5t-180 -50.5q-107 0 -177 61.5t-70 166.5zM379 281q0 -51 34 -82t83 -31q70 0 127 57v219l-101 -24q-143 -38 -143 -139z" />
<glyph unicode="b" horiz-adv-x="1220" d="M23 1210v95q151 90 397 110l37 -35v-338q0 -116 -19 -282l13 -4q120 225 346 225q165 0 259.5 -121.5t94.5 -316.5q0 -255 -150.5 -413.5t-402.5 -158.5q-174 0 -283 74l-94 -76h-74v1110q0 51 -13 72t-50 35zM461 180q70 -61 153 -61q92 0 153.5 85t61.5 247 q0 139 -50.5 214.5t-151.5 75.5q-81 0 -166 -49v-512z" />
<glyph unicode="c" horiz-adv-x="1009" d="M66 444q0 112 36 208.5t105 170.5t177.5 116t244.5 42q162 0 291 -51q13 -56 13 -118q0 -18 -1 -37q-5 -83 -31 -152h-160l-61 184q-49 24 -100 24q-91 0 -146 -71.5t-55 -208.5q0 -152 71.5 -240t186.5 -88q121 0 237 107l84 -82q-65 -128 -174.5 -202.5t-257.5 -74.5 q-93 0 -175.5 31t-146.5 89t-101 149t-37 204z" />
<glyph unicode="d" horiz-adv-x="1236" d="M66 420q0 158 69 285.5t199.5 201.5t298.5 74q55 0 115 -8v108q0 54 -10 72t-50 35l-59 24v95q162 92 397 110l37 -35v-1204l145 -37l-12 -129l-393 -45l-37 35l14 188l-12 5q-117 -224 -330 -224q-165 0 -268.5 126t-103.5 323zM389 512q0 -141 60.5 -225t152.5 -84 q76 0 146 61v529q-64 41 -132 41q-102 0 -164.5 -89.5t-62.5 -232.5z" />
<glyph unicode="e" horiz-adv-x="1067" d="M66 449q0 235 143 383.5t369 148.5q103 0 185 -33.5t137.5 -96.5t77.5 -160q12 -52 11 -111q0 -51 -8 -107h-600q37 -256 276 -256q83 0 146 27t125 73l71 -86q-72 -123 -187.5 -191.5t-264.5 -68.5q-219 0 -350 132t-131 346zM375 578l284 10v27q0 225 -129 225 q-69 0 -110.5 -66.5t-44.5 -195.5z" />
<glyph unicode="f" horiz-adv-x="763" d="M55 788v113l86 29q33 10 46 24.5t16 44.5l4 43q18 177 138 275t333 98q134 0 240 -35q12 -42 12 -106q0 -18 -1 -36q-4 -90 -26 -146h-145l-45 155q-48 25 -88 25q-57 0 -92 -45.5t-35 -136.5v-138h229l-12 -164h-217v-612l202 -47l-12 -129h-618l-13 129l125 37v622 h-127z" />
<glyph unicode="g" horiz-adv-x="1105" d="M43 -279q0 63 55.5 117t169.5 88v11q-143 51 -143 155q0 124 209 217v10q-124 31 -192 107.5t-68 189.5q0 166 133.5 265.5t335.5 99.5q143 0 256 -55l108 219q49 -9 91.5 -47t60.5 -86l-191 -127q129 -95 129 -246q0 -155 -135.5 -247.5t-347.5 -92.5q-70 0 -119 8 q-53 -26 -53 -67q0 -54 119 -62l272 -16q169 -10 247.5 -65t78.5 -160q0 -78 -39.5 -148t-115 -125.5t-197 -88t-273.5 -32.5q-194 0 -292.5 47t-98.5 131zM291 -164q0 -71 69.5 -117.5t190.5 -46.5q119 0 196.5 39t77.5 94q0 70 -145 82l-248 19q-40 2 -106 14 q-35 -35 -35 -84zM399 647q0 -111 37 -168t105 -57q133 0 133 209q0 108 -36.5 167.5t-105.5 59.5q-63 0 -98 -52.5t-35 -158.5z" />
<glyph unicode="h" horiz-adv-x="1290" d="M47 129l125 37v915q0 54 -9.5 72t-49.5 35l-60 24v95q162 92 398 110l36 -35v-350q0 -131 -18 -268l12 -4q69 108 167 164.5t206 56.5q132 0 202 -78.5t70 -218.5v-514l146 -41l-12 -129h-551l-13 129l115 35v420q0 78 -34 113.5t-109 35.5q-79 0 -181 -41v-524l136 -39 l-13 -129h-551z" />
<glyph unicode="i" horiz-adv-x="671" d="M57 129l125 37v493q0 54 -9.5 72t-49.5 35l-60 25v94q162 92 398 110l37 -34v-791l145 -41l-12 -129h-561zM154 1251q0 77 51.5 125.5t134.5 48.5t134.5 -48.5t51.5 -125.5t-51.5 -126.5t-134.5 -49.5t-134.5 49.5t-51.5 126.5z" />
<glyph unicode="j" horiz-adv-x="622" d="M-45 -342q80 33 123 72t64.5 104.5t21.5 171.5v653q0 54 -10 72t-50 35l-59 25v94q162 92 397 110l37 -34v-842q0 -265 -137 -402q-128 -128 -354 -166zM135 1251q0 77 52 125.5t135 48.5t134.5 -48.5t51.5 -125.5t-51.5 -126.5t-134.5 -49.5t-135 49.5t-52 126.5z" />
<glyph unicode="k" horiz-adv-x="1249" d="M47 129l125 37v915q0 54 -9.5 72t-49.5 35l-60 24v95q162 92 398 110l36 -35v-845h19q36 0 61.5 11.5t55.5 41.5l190 194l-154 39l13 129h489l13 -129l-158 -39l-187 -157l330 -469l86 -29l-12 -129h-539l-12 129l111 21l-181 284h-125v-270l107 -35l-12 -129h-523z" />
<glyph unicode="l" horiz-adv-x="661" d="M47 129l125 37v915q0 54 -9.5 72t-49.5 35l-60 24v95q162 92 398 110l36 -35v-1212l146 -41l-12 -129h-562z" />
<glyph unicode="m" horiz-adv-x="1898" d="M57 129l125 37v493q0 54 -9.5 72t-49.5 35l-60 25v94q162 92 398 110l37 -34l-29 -199l12 -4q173 223 373 223q106 0 171.5 -57.5t72.5 -161.5l12 -4q71 105 166 164t197 59q127 0 194.5 -78.5t67.5 -218.5v-514l145 -41l-12 -129h-541l-12 129l108 35v420 q0 78 -32.5 113.5t-104.5 35.5q-74 0 -172 -41v-526l127 -37l-12 -129h-520l-13 129l107 35v420q0 78 -31.5 113.5t-103.5 35.5q-79 0 -174 -43v-522l129 -39l-13 -129h-540z" />
<glyph unicode="n" horiz-adv-x="1300" d="M57 129l125 37v493q0 54 -9.5 72t-49.5 35l-60 25v94q162 92 398 110l37 -34l-29 -199l12 -4q87 112 180 167.5t203 55.5q130 0 201.5 -76.5t71.5 -212.5v-522l145 -41l-12 -129h-551l-12 129l114 35v420q0 78 -34 113.5t-109 35.5q-87 0 -180 -41v-524l135 -39l-12 -129 h-551z" />
<glyph unicode="o" horiz-adv-x="1171" d="M66 451q0 232 154.5 381t395.5 149q228 0 359 -132.5t131 -344.5q0 -151 -65.5 -271.5t-190.5 -191t-289 -70.5q-117 0 -211.5 36.5t-156 101.5t-94.5 152.5t-33 189.5zM403 500q0 -178 49.5 -278.5t141.5 -100.5q86 0 130 86.5t44 251.5q0 177 -51.5 276t-141.5 99 q-85 0 -128.5 -85t-43.5 -249z" />
<glyph unicode="p" horiz-adv-x="1234" d="M39 -299l125 37v921q0 54 -10 72t-50 35l-59 25v94q162 92 395 110l37 -34l-31 -203l13 -4q133 227 352 227q165 0 259.5 -121.5t94.5 -316.5q0 -255 -150.5 -413.5t-402.5 -158.5q-61 0 -137 13v-236l203 -47l-12 -131h-615zM475 180q74 -61 152 -61q93 0 155 85t62 247 q0 139 -51 214.5t-152 75.5q-81 0 -166 -49v-512z" />
<glyph unicode="q" horiz-adv-x="1210" d="M66 424q0 159 71 284.5t207 199t315 73.5q150 0 416 -68l-12 -245v-930l145 -39l-12 -129h-602l-12 129l166 45v168q0 103 18 272l-12 4q-45 -111 -126.5 -164t-183.5 -53q-165 0 -271.5 128t-106.5 325zM389 516q0 -143 62.5 -228t154.5 -85q82 0 142 67v523 q-56 41 -127 41q-104 0 -168 -87.5t-64 -230.5z" />
<glyph unicode="r" horiz-adv-x="952" d="M57 129l125 37v493q0 54 -9.5 72t-49.5 35l-60 25v94q162 92 398 110l37 -34l-37 -224l12 -4q85 133 170 190.5t176 57.5q33 0 74 -8q22 -73 22 -151q0 -93 -32 -193h-154l-45 123q-97 -16 -186 -80v-496l202 -47l-12 -129h-618z" />
<glyph unicode="s" horiz-adv-x="944" d="M76 166q0 84 20 145h152l53 -155q80 -39 168 -39q66 0 102.5 22.5t36.5 65.5t-40 71.5t-144 55.5q-171 45 -248.5 121.5t-77.5 191.5q0 157 121 246.5t334 89.5q163 0 276 -39q14 -39 14 -104q-1 -10 -1 -21q-2 -80 -23 -137h-149l-49 141q-56 21 -119 21 q-67 0 -103.5 -23t-36.5 -67q0 -38 39.5 -66.5t141.5 -58.5q184 -53 259 -121.5t75 -186.5q0 -165 -125 -256.5t-338 -91.5q-156 0 -324 58q-14 52 -14 132v5z" />
<glyph unicode="t" horiz-adv-x="808" d="M29 788v121l159 56l127 231h158v-244h281l-13 -164h-272v-448q0 -66 23.5 -97.5t74.5 -31.5q77 0 142 68l79 -70q-52 -109 -144.5 -173.5t-215.5 -64.5q-127 0 -199.5 72.5t-72.5 214.5v530h-127z" />
<glyph unicode="u" horiz-adv-x="1267" d="M43 778v94q164 93 397 111l37 -35v-575q0 -170 144 -170q80 0 157 59v385q0 54 -9.5 72t-49.5 35l-60 24v94q164 93 398 111l37 -35v-770l145 -37l-12 -129l-393 -45l-37 35l14 188l-12 5q-139 -224 -365 -224q-131 0 -201.5 78t-70.5 219v379q0 54 -10 72t-50 35z" />
<glyph unicode="v" horiz-adv-x="1089" d="M8 823l10 129h537l12 -129l-123 -30l127 -371l58 -180l57 180l127 366l-117 35l13 129h362l10 -129l-86 -41l-344 -788h-215l-346 799z" />
<glyph unicode="w" horiz-adv-x="1617" d="M12 823l11 129h546l13 -129l-160 -39l102 -374l37 -154l45 154l193 542h174l194 -542l45 -152l37 152l101 376l-156 37l12 129h389l11 -129l-72 -28l-285 -801l-231 6l-156 416l-53 162l-49 -168l-154 -416h-231l-289 801z" />
<glyph unicode="x" horiz-adv-x="1124" d="M8 129l105 25l288 319l-315 332l-57 18l12 129h541l12 -129l-135 -24l172 -207l149 211l-106 20l12 129h377l12 -129l-92 -22l-272 -299l336 -352l69 -21l-12 -129h-565l-13 129l144 25l-191 229l-166 -233l113 -21l-12 -129h-394z" />
<glyph unicode="y" horiz-adv-x="1097" d="M8 823l10 129h537l12 -129l-121 -32l142 -367l45 -148l49 148l135 364l-112 35l12 129h362l11 -129l-91 -41l-376 -817q-81 -175 -137 -260t-110 -118t-134 -33q-46 0 -101 8q-29 70 -29 139.5t29 138.5q99 -16 162 -16q70 0 103 24t65 99l8 18l-385 830z" />
<glyph unicode="z" horiz-adv-x="1042" d="M47 121l539 702l-246 -12l-90 -195h-152q-12 68 -12 136q0 99 25 200h804l39 -121l-534 -700l278 12l109 246h156q9 -81 9 -155q0 -129 -28 -234h-858z" />
<glyph unicode="&#xad;" d="M102 418v250h547v-250h-547z" />
<glyph unicode="&#x2000;" horiz-adv-x="712" />
<glyph unicode="&#x2001;" horiz-adv-x="1425" />
<glyph unicode="&#x2002;" horiz-adv-x="712" />
<glyph unicode="&#x2003;" horiz-adv-x="1425" />
<glyph unicode="&#x2004;" horiz-adv-x="475" />
<glyph unicode="&#x2005;" horiz-adv-x="356" />
<glyph unicode="&#x2006;" horiz-adv-x="237" />
<glyph unicode="&#x2007;" horiz-adv-x="237" />
<glyph unicode="&#x2008;" horiz-adv-x="178" />
<glyph unicode="&#x2009;" horiz-adv-x="285" />
<glyph unicode="&#x200a;" horiz-adv-x="79" />
<glyph unicode="&#x2010;" d="M102 418v250h547v-250h-547z" />
<glyph unicode="&#x2011;" d="M102 418v250h547v-250h-547z" />
<glyph unicode="&#x2012;" d="M102 418v250h547v-250h-547z" />
<glyph unicode="&#x2013;" horiz-adv-x="1228" d="M102 418v250h1024v-250h-1024z" />
<glyph unicode="&#x2014;" horiz-adv-x="2252" d="M102 418v250h2048v-250h-2048z" />
<glyph unicode="&#x202f;" horiz-adv-x="285" />
<glyph unicode="&#x205f;" horiz-adv-x="356" />
<glyph unicode="&#x25fc;" horiz-adv-x="952" d="M0 0v952h952v-952h-952z" />
</font>
</defs>
</svg>
